<?xml version="1.0" encoding="utf-8"?>
<!-- Generator: Adobe Illustrator 22.0.0, SVG Export Plug-In . SVG Version: 6.00 Build 0)  -->
<svg version="1.1" id="Layer_1" xmlns="http://www.w3.org/2000/svg" xmlns:xlink="http://www.w3.org/1999/xlink" x="0px" y="0px"
	 viewBox="0 0 77 77" style="enable-background:new 0 0 77 77;" xml:space="preserve">
<style type="text/css">
	.st0{fill:#FE000D;}
	.st1{fill:#FFFFFF;}
	.st2{fill:#73BE1E;}
</style>
<g>
	<path class="st0" d="M76.7,3.1v35.4c0,22.6-14.6,37-38.2,37H1.9c-0.9,0-1.6-0.7-1.6-1.6V38.5c0-22.6,14.7-37,38.2-37h36.6
		C76,1.5,76.7,2.2,76.7,3.1"/>
	<g>
		<g>
			<g>
				<path class="st1" d="M7.3,27.3c3,2.4,5.8,3.3,8.2,3.3l0,0c1.5,0,2.7-0.3,3.8-0.8l-1.4,9.8L13,58.7c-0.3,1.4,0.5,2.8,1.8,3.1
					c1.4,0.3,2.8-0.5,3.1-1.8l4.6-18l1.2,0.2v17.2c0,1.4,1.1,2.6,2.6,2.6c1.4,0,2.6-1.1,2.6-2.6V41.5c0,0,0-0.1,0-0.2l1.7-11.6
					c0.1-0.1,0.3-0.2,0.4-0.4l0,0c0,0,0.3-0.4,0.7-0.8c-0.2-0.2-0.5-0.4-0.8-0.6c-0.5-0.4-1.2-0.8-1.8-1.2c-0.1-0.1-0.3-0.2-0.4-0.2
					c0.2,0.1,0.3,0.1,0.5,0.2c0.6,0.2,1.1,0.5,1.6,0.8c0.1,0,0.1,0.1,0.2,0.1c0.4,0.2,0.8,0.5,1.1,0.7c0.3,0.2,0.5,0.4,0.6,0.5l0,0
					v8.8v3.9v17.9c0,1.4,1.1,2.6,2.6,2.6c1.4,0,2.6-1.1,2.6-2.6V43.1h1v16.3c0,1.4,1.1,2.6,2.6,2.6c1.4,0,2.6-1.1,2.6-2.6V41.5v-3.9
					v-8.8l0,0c0.2-0.1,0.4-0.3,0.6-0.5c0.3-0.2,0.7-0.5,1.1-0.7c0.1,0,0.1-0.1,0.2-0.1c0.5-0.3,1-0.5,1.6-0.8
					c0.2-0.1,0.3-0.1,0.5-0.2c-0.1,0.1-0.3,0.1-0.4,0.2c-0.6,0.4-1.3,0.8-1.8,1.2c-0.3,0.2-0.6,0.4-0.8,0.6c0.4,0.4,0.7,0.7,0.7,0.8
					l0,0c0.1,0.1,0.2,0.3,0.4,0.4l1.7,11.6c0,0.1,0,0.1,0,0.2v17.9c0,1.4,1.1,2.6,2.6,2.6c1.4,0,2.6-1.1,2.6-2.6V42.2l1.2-0.2
					l4.6,18c0.3,1.4,1.7,2.2,3.1,1.8c1.4-0.3,2.2-1.7,1.8-3.1l-4.9-19.1l-1.4-9.8c1,0.5,2.3,0.8,3.8,0.8l0,0c2.4,0,5.2-0.9,8.2-3.3
					c0.7-0.5,0.8-1.5,0.3-2.2s-1.5-0.8-2.2-0.3c-2.6,2-4.6,2.6-6.2,2.6c-0.1,0-0.2,0-0.3,0c-0.1,0.3-0.2,0.5-0.3,0.7
					c-0.4,0.5-1,0.8-1.6,0.8c-0.4,0-0.8-0.1-1.1-0.4c-0.2-0.1-0.4-0.3-0.6-0.4c-0.6-0.4-1.3-0.9-2.1-1.5c0.6,0.3,1.3,0.6,2,1
					c0.3,0.2,0.6,0.4,0.9,0.6c0.7,0.5,1.7,0.3,2.2-0.4c0.1-0.2,0.2-0.3,0.2-0.5c0.2-0.6-0.1-1.3-0.6-1.7c-1.7-1.2-3.4-2-5-2.4
					c-0.1,0.4-0.3,0.8-0.6,1.1l-0.1,0.1c-0.2,0.3-0.5,0.6-0.8,0.9l-0.1,0.1c-0.3,0.2-0.5,0.4-0.8,0.5c-0.7,0.4-1.5,0.6-2.3,0.6
					c-0.4,0-0.8,0-1.1-0.1c-0.1,0-0.3-0.1-0.4-0.1h-0.1c-0.5-0.2-1-0.4-1.4-0.7c-0.5-0.4-0.9-0.8-1.2-1.4c0-0.1-0.1-0.1-0.1-0.2l0,0
					c-0.3,0.1-0.6,0.3-0.9,0.4c-0.8-0.5-1.7-0.9-2.7-1.2l-0.1,0.1c-0.9,0.9-2.2,1.5-3.5,1.5c-0.4,0-0.8,0-1.1-0.1
					c-0.9-0.2-1.7-0.7-2.4-1.3l-0.1-0.1c-1,0.3-1.9,0.8-2.7,1.2c-0.3-0.1-0.6-0.3-0.9-0.4l0,0c0,0.1-0.1,0.1-0.1,0.2
					c-0.3,0.5-0.7,1-1.2,1.4C30,26,29.5,26.3,29,26.4h-0.1c-0.1,0-0.3,0.1-0.4,0.1c-0.4,0.1-0.8,0.1-1.1,0.1c-0.8,0-1.6-0.2-2.3-0.6
					c-0.3-0.2-0.6-0.3-0.8-0.5l-0.1-0.1c-0.3-0.3-0.6-0.6-0.8-0.9l-0.1-0.1c-0.2-0.3-0.4-0.7-0.6-1.1c-1.6,0.4-3.3,1.2-5,2.4
					c-0.6,0.4-0.8,1.1-0.6,1.7c0,0.2,0.1,0.4,0.2,0.5c0.5,0.7,1.5,0.9,2.2,0.4c0.3-0.2,0.6-0.4,0.9-0.6c0.7-0.4,1.4-0.7,2-1
					c-0.8,0.6-1.5,1.1-2.1,1.5c-0.2,0.2-0.5,0.3-0.6,0.4C19.4,28.8,19,29,18.6,29c-0.6,0-1.2-0.3-1.6-0.8c-0.2-0.2-0.3-0.5-0.3-0.7
					c-0.1,0-0.2,0-0.3,0c-1.6,0-3.6-0.6-6.2-2.6c-0.7-0.5-1.7-0.4-2.2,0.3C6.5,25.8,6.6,26.8,7.3,27.3z"/>
				<path class="st1" d="M23,24.6c0.2,0.2,0.4,0.4,0.6,0.6c0.4,0.4,1,0.6,1.5,0.8c0.7,0.2,1.4,0.3,2.1,0.2c0.1,0,0.3,0,0.4-0.1l0,0
					c0.5-0.1,1-0.3,1.4-0.6c0.6-0.4,1.2-1,1.5-1.6l0,0c0.6-1,0.8-2.2,0.5-3.3c-0.6-2.5-3.1-4-5.6-3.5c-2.5,0.6-4,3.1-3.5,5.6
					c0,0.1,0,0.1,0.1,0.2c0,0.1,0.1,0.3,0.1,0.4C22.3,23.7,22.6,24.2,23,24.6z"/>
				<path class="st1" d="M45.7,23.9c0.4,0.6,0.9,1.2,1.5,1.6c0.4,0.3,0.9,0.5,1.4,0.6l0,0c0.1,0,0.3,0.1,0.4,0.1
					c0.7,0.1,1.4,0,2.1-0.2c0.5-0.2,1.1-0.5,1.5-0.8c0.2-0.2,0.4-0.4,0.6-0.6c0.4-0.4,0.6-0.9,0.8-1.4c0-0.1,0.1-0.2,0.1-0.4
					c0-0.1,0-0.1,0.1-0.2c0.6-2.5-1-5-3.5-5.6s-5,1-5.6,3.5C44.9,21.7,45.1,22.9,45.7,23.9C45.7,23.8,45.7,23.9,45.7,23.9z"/>
				<path class="st1" d="M37,24.3c1.5,0.4,3.1-0.1,4.2-1.1l0.1-0.1c0.6-0.6,1.1-1.4,1.3-2.3c0.6-2.5-1-5-3.5-5.6s-5,1-5.6,3.5
					c-0.4,1.6,0.2,3.3,1.3,4.4l0.1,0.1C35.6,23.7,36.3,24.1,37,24.3z"/>
			</g>
			<g>
				<path class="st0" d="M22.7,32.9c0.4-0.2,0.9-0.4,1.4-0.4s1.1,0.1,1.1,0.6c-0.2,0-0.5-0.1-0.8-0.1c-1,0-2.2,0.3-2.2,1.6
					c0,0.9,0.8,1.2,1.6,1.2c0.6,0,1.1-0.2,1.4-0.7l0,0v0.6h1.9v-2.6c0-1.5-1.4-1.8-2.6-1.8c-0.8,0-1.2,0.1-1.8,0.2V32.9z M25.2,34.1
					c0,0.4-0.2,0.8-0.6,0.8c-0.3,0-0.5-0.1-0.5-0.4c0-0.4,0.5-0.5,0.9-0.5h0.2V34.1z"/>
				<path class="st2" d="M25.3,31.1l1.7,0.4c0,0,0.1-1.7-1.7-2.2l-1.7-0.4C23.6,28.9,23.5,30.9,25.3,31.1"/>
			</g>
			<g>
				<path class="st0" d="M35.4,30.7c0.4-0.2,0.9-0.4,1.4-0.4s1.1,0.1,1.1,0.6c-0.2,0-0.5-0.1-0.8-0.1c-1,0-2.2,0.3-2.2,1.6
					c0,0.9,0.8,1.2,1.6,1.2c0.6,0,1.1-0.2,1.4-0.7l0,0v0.6h1.9v-2.6c0-1.5-1.4-1.8-2.6-1.8c-0.8,0-1.2,0.1-1.8,0.2
					C35.4,29.3,35.4,30.7,35.4,30.7z M37.9,31.8c0,0.4-0.2,0.8-0.6,0.8c-0.3,0-0.5-0.1-0.5-0.4c0-0.4,0.5-0.5,0.9-0.5h0.2
					C37.9,31.7,37.9,31.8,37.9,31.8z"/>
				<path class="st2" d="M38.1,28.9l1.7,0.4c0,0,0.1-1.7-1.7-2.2l-1.7-0.4C36.3,26.7,36.3,28.6,38.1,28.9"/>
			</g>
			<g>
				<path class="st0" d="M49.3,32.9c0.4-0.2,0.9-0.4,1.4-0.4s1.1,0.1,1.1,0.6c-0.2,0-0.5-0.1-0.8-0.1c-1,0-2.2,0.3-2.2,1.6
					c0,0.9,0.8,1.2,1.6,1.2c0.6,0,1.1-0.2,1.4-0.7l0,0v0.6h1.9v-2.6c0-1.5-1.4-1.8-2.6-1.8c-0.8,0-1.2,0.1-1.8,0.2
					C49.3,31.5,49.3,32.9,49.3,32.9z M51.8,34.1c0,0.4-0.2,0.8-0.6,0.8c-0.3,0-0.5-0.1-0.5-0.4c0-0.4,0.5-0.5,0.9-0.5h0.2
					C51.8,34,51.8,34.1,51.8,34.1z"/>
				<path class="st2" d="M51.9,31.1l1.7,0.4c0,0,0.1-1.7-1.7-2.2l-1.7-0.4C50.2,28.9,50.2,30.9,51.9,31.1"/>
			</g>
		</g>
	</g>
</g>
</svg>
